<svg width="151" height="167" viewBox="0 0 151 167" fill="none" xmlns="http://www.w3.org/2000/svg">
<path d="M97.084 95.662C87.6992 113.178 76.5953 127.04 66.3108 135.683C61.1672 140.006 56.2479 143.007 51.8684 144.519C47.4866 146.031 43.7026 146.033 40.7609 144.457C37.8191 142.881 35.8391 139.861 34.838 135.584C33.8361 131.302 33.8289 125.81 34.7999 119.394C36.7413 106.565 42.575 90.1611 51.9655 72.6343C61.349 55.1203 72.8277 40.8825 83.4899 31.862C88.8225 27.3505 93.9317 24.1605 98.455 22.5091C102.985 20.8553 106.856 20.7677 109.789 22.3389C112.718 23.9082 114.609 27.0072 115.473 31.429C116.338 35.852 116.16 41.5342 115.001 48.1411C112.686 61.3501 106.476 78.133 97.084 95.662Z" stroke="#9F5B6D"/>
<path d="M98.084 73.1342C107.476 90.6641 113.434 106.945 115.5 119.649C116.533 126.004 116.588 131.433 115.632 135.666C114.678 139.894 112.73 142.881 109.789 144.457C106.838 146.038 103.047 146.122 98.6673 144.748C94.2888 143.376 89.3712 140.561 84.23 136.426C73.9496 128.159 62.8484 114.676 53.4655 97.162C44.0754 79.635 37.739 62.3512 35.298 48.6396C34.077 41.7811 33.8362 35.8462 34.656 31.2329C35.4764 26.6159 37.3415 23.4029 40.2608 21.8389C43.1877 20.2708 47.0546 20.4154 51.5862 22.1622C56.1105 23.9062 61.2208 27.2206 66.5548 31.8576C77.2195 41.1288 88.6999 55.6183 98.084 73.1342Z" stroke="#9F5B6D"/>
<path d="M76.5247 58.3982C96.4044 58.3982 113.34 61.2411 125.286 65.8244C131.26 68.1165 135.962 70.8341 139.161 73.827C142.358 76.8176 144.025 80.0515 144.025 83.3982C144.025 86.7209 142.148 89.9363 138.596 92.9149C135.045 95.8921 129.873 98.5848 123.426 100.85C110.536 105.38 92.6586 108.165 72.7784 108.165C52.8997 108.165 36.2788 105.255 24.6468 100.608C18.8298 98.2836 14.285 95.5344 11.202 92.5188C8.12205 89.506 6.52472 86.2534 6.52472 82.8982C6.52472 79.5685 8.331 76.3691 11.7636 73.4192C15.1966 70.469 20.2114 67.8105 26.5016 65.5788C39.078 61.1166 56.6431 58.3982 76.5247 58.3982Z" stroke="#9F5B6D"/>
<path d="M62.0056 89.801L70.5009 72.2793C72.3231 68.5212 77.6769 68.5212 79.4991 72.2793L87.9944 89.801C89.3842 92.6674 87.2963 96 84.1108 96C82.2531 96 80.6037 94.8112 80.0163 93.0488L78.9487 89.846C78.3821 88.1464 76.7916 87 75 87C73.2084 87 71.6179 88.1464 71.0513 89.8461L69.9837 93.0488C69.3963 94.8112 67.7469 96 65.8892 96C62.7037 96 60.6158 92.6674 62.0056 89.801Z" fill="url(#paint0_linear_3_37)"/>
<path d="M39.7369 21.9403C42.8149 20.2844 46.7343 20.3477 51.2359 21.98C55.7353 23.6115 60.7547 26.7908 65.9604 31.2597C76.3689 40.195 87.4402 54.2157 96.4889 71.0351C105.544 87.8665 111.955 104.734 114.587 118.188C115.904 124.918 116.269 130.764 115.566 135.312C114.863 139.865 113.107 143.03 110.263 144.56C107.387 146.107 103.592 146.155 99.1658 144.76C94.7449 143.365 89.754 140.546 84.5529 136.456C74.1531 128.278 62.9846 115.074 53.9403 98.2631C44.8863 81.4339 38.2823 63.9126 35.4996 49.7792C34.1076 42.7094 33.678 36.5176 34.3578 31.6959C35.0391 26.8647 36.816 23.5118 39.7369 21.9403Z" stroke="#9F5B6D"/>
<path d="M40.7369 144.06C37.8812 142.523 36.0031 139.383 35.1132 134.888C34.224 130.396 34.3393 124.627 35.4055 117.973C37.5371 104.67 43.4504 87.944 52.5274 71.075C61.597 54.2199 73.1604 40.3139 83.9324 31.5023C89.3201 27.0952 94.4899 23.9787 99.0334 22.3954C103.586 20.8091 107.429 20.7872 110.248 22.4319C113.068 24.0768 114.843 27.2902 115.595 31.8328C116.345 36.372 116.059 42.1622 114.825 48.8236C112.358 62.1416 106.128 78.8261 97.0481 95.6999C87.9765 112.559 76.807 126.282 66.4109 134.967C61.2113 139.31 56.2244 142.378 51.8073 143.956C47.3839 145.536 43.6017 145.601 40.7369 144.06Z" stroke="#9F5B6D"/>
<path d="M72.445 81.0332C72.8851 78.0994 77.1149 78.0994 77.555 81.0332C77.7893 82.5952 76.5795 84 75 84C73.4205 84 72.2107 82.5952 72.445 81.0332Z" stroke="#E8B0AF"/>
<defs>
<linearGradient id="paint0_linear_3_37" x1="75" y1="63" x2="75" y2="96" gradientUnits="userSpaceOnUse">
<stop stop-color="#9F5B6D"/>
<stop offset="1" stop-color="#9F5B6D"/>
</linearGradient>
</defs>
</svg>
